<svg width="99" height="99" viewBox="0 0 99 99" fill="none" xmlns="http://www.w3.org/2000/svg">
    <rect width="99" height="99" fill="#D9D9D9"/>
    <path d="M49.4866 96.9999C38.5276 96.9938 27.9076 93.2001 19.4258 86.2615C10.9441 79.3229 5.12204 69.666 2.94607 58.9268C0.770101 48.1877 2.37399 37.0266 7.48602 27.3345C12.5981 17.6423 20.9039 10.0151 30.9964 5.74482C42.6044 0.841688 55.685 0.749922 67.3607 5.48971C79.0364 10.2295 88.3507 19.4126 93.2546 31.0188C98.1585 42.625 98.2503 55.7036 93.5098 67.3774C88.7692 79.0513 79.5847 88.3642 67.9767 93.2673C62.1274 95.7429 55.8384 97.0125 49.4866 96.9999ZM49.4866 4.70766C24.7807 4.70766 4.68121 24.804 4.68121 49.5061C4.68121 74.2081 24.7807 94.3045 49.4866 94.3045C74.1925 94.3045 94.2919 74.214 94.2919 49.5061C94.2919 24.7981 74.1925 4.70766 49.4866 4.70766Z" fill="#662D91"/>
    <path d="M84.111 50.5948C84.4791 50.7928 84.8424 50.8057 85.1132 50.4776C85.5098 50.0146 85.8684 49.5204 86.1857 48.9998C86.6545 48.2017 87.2652 47.6825 88.2111 47.6134V47.5079C87.3308 46.336 86.1904 45.6891 84.6947 45.8203C84.381 45.8487 84.0721 45.9173 83.7758 46.0242C82.9049 46.3371 82.5861 47.2114 83.0221 48.0318C83.069 48.1208 83.1194 48.2099 83.1933 48.3435C82.1114 48.7912 81.4351 49.6689 80.6849 50.4764C80.0239 51.1796 79.2467 51.7796 78.4204 52.5144V51.4726C79.528 51.4503 79.9137 50.9546 79.6113 49.9115C79.4958 49.4911 79.3069 49.0943 79.0533 48.7396C78.69 48.2532 78.4309 47.7728 78.5845 47.1493C77.2553 47.2149 76.1031 48.6154 76.1758 50.0545C76.1886 50.3167 76.2331 50.5764 76.3082 50.828C76.5989 51.7984 77.2131 52.0128 78.0582 51.455C78.3407 52.096 78.1825 52.5449 77.5894 52.8613C75.1994 54.1305 72.8552 54.0332 70.5133 52.6175L72.1461 51.9964C72.2695 52.1628 72.4054 52.3195 72.5528 52.4652C72.9994 52.8531 73.6276 52.9047 74.0507 52.5367C75.6765 51.1221 75.7796 48.2779 74.5114 46.9489C73.9722 47.4516 73.4565 47.9732 72.888 48.4396C72.6852 48.6072 72.3805 48.674 72.1097 48.7314C71.3971 48.872 70.9235 49.267 70.7817 49.9772C70.6399 50.6874 70.9317 51.2429 71.5506 51.6179C71.6022 51.6701 71.6492 51.7265 71.6913 51.7866C71.0911 51.9402 70.5438 52.089 69.9905 52.2132C69.9303 52.2213 69.869 52.2173 69.8103 52.2016C69.7515 52.1859 69.6965 52.1588 69.6483 52.1218C68.5336 51.2288 67.4212 50.3252 66.33 49.4346L68.5066 47.8642C68.55 47.8935 68.6731 47.9814 68.8043 48.0622C69.8522 48.6904 71.1955 48.0681 71.2927 46.854C71.3795 45.7547 71.8038 44.9062 72.8083 44.3237C72.2363 43.9007 71.6116 43.7647 70.9751 43.7378C69.3646 43.6663 68.0753 44.2898 67.1552 45.6281C66.4707 46.6243 66.7027 47.2899 67.8819 47.6544C67.4534 48.2133 66.8633 48.627 66.1917 48.8392C66.0745 48.8791 65.8541 48.7877 65.7568 48.6857C65.3947 48.306 65.0688 47.8911 64.7195 47.4985C63.2403 45.8344 61.4095 44.8253 59.1906 44.5406C59.1039 44.53 59.0183 44.5136 58.9328 44.496C58.8831 44.4783 58.8349 44.4567 58.7886 44.4316C58.8765 44.2874 58.9562 44.1456 59.0476 44.0108C60.1034 42.4712 60.7548 40.6907 60.9418 38.8332C60.9758 38.4957 61.1082 38.3246 61.42 38.259C61.4714 38.2478 61.5217 38.2317 61.57 38.2109C62.8101 37.7047 63.0832 37.9836 63.7314 39.3688C63.5919 39.3372 63.4864 39.3102 63.3798 39.2903C63.2435 39.2583 63.1019 39.2567 62.9649 39.2856C62.8279 39.3144 62.699 39.373 62.5871 39.4572C62.4753 39.5414 62.3834 39.6491 62.3178 39.7728C62.2522 39.8964 62.2146 40.033 62.2077 40.1728C62.026 42.1885 63.8182 44.1234 65.8963 44.114C65.8061 43.9019 65.6408 43.7003 65.6513 43.5069C65.677 43.0496 65.7488 42.5961 65.8658 42.1533C65.9514 41.8205 66.1776 41.524 66.2562 41.19C66.514 40.0919 65.7393 38.8977 64.2507 39.4063L63.2438 37.7785C64.4347 37.5371 65.6842 37.3296 66.9313 37.5207C67.5865 37.6215 67.9768 38.2309 68.3015 38.8098C68.0014 38.9328 67.6568 38.9739 67.4892 39.1684C67.2829 39.4087 67.0884 39.793 67.1247 40.0872C67.372 42.1088 70.1206 43.4741 71.9691 42.4967C71.2916 41.9787 71.1416 41.306 71.2529 40.488C71.3115 40.0579 71.2037 39.5786 71.0665 39.1543C70.7325 38.1242 69.7127 37.5582 68.7328 38.6914C68.4656 38.3305 68.2019 37.9742 67.985 37.6789C68.972 37.5945 69.987 37.5265 70.9974 37.4128C71.378 37.3519 71.7518 37.2538 72.1132 37.1199C72.9513 36.8515 74.3989 37.2781 74.7763 38.0492C74.9873 38.4793 74.9169 39.0465 74.9732 39.5528L74.8114 39.6055C74.7013 39.5411 74.5923 39.4731 74.4809 39.411C74.3643 39.338 74.2343 39.2891 74.0985 39.267C73.9627 39.245 73.8239 39.2504 73.6902 39.2828C73.5566 39.3153 73.4307 39.3741 73.3201 39.4559C73.2095 39.5377 73.1164 39.6408 73.0462 39.7591C72.1261 41.19 72.7391 43.3827 74.3203 44.1784C74.3942 43.3464 74.8536 42.7991 75.5522 42.3959C75.7866 42.2635 75.9636 42.0139 76.1137 41.783C76.6892 40.8982 76.3481 40.1622 75.1947 39.8223L75.3963 38.6504C75.7609 39.1286 76.0422 39.5669 76.3915 39.9395C76.9342 40.5255 77.2623 41.1595 77.2787 41.9764C77.2846 42.3104 77.4628 42.6408 77.5624 42.9737C76.7736 43.2198 76.6552 43.4905 76.9951 44.2792C77.648 45.7934 79.5492 46.3828 80.8209 45.4418C80.2641 45.0527 80.1176 44.5042 80.0719 43.8503C80.0252 43.4181 79.8664 43.0057 79.6113 42.6537C79.2092 42.0678 78.5915 42.1522 77.8531 42.8752C77.7218 42.3291 77.6034 41.8369 77.4944 41.3775C78.4321 41.7736 79.3218 42.1076 80.1704 42.5307C80.5302 42.7112 80.7904 43.085 81.1081 43.3592C81.2792 43.5069 81.4726 43.63 81.6859 43.787C81.6238 43.8854 81.5605 43.9792 81.5042 44.0776C81.2511 44.5253 81.3671 44.9308 81.8184 45.1875C83.0479 45.8906 84.6854 45.1453 85.0042 43.7214C84.4275 43.8034 84.0419 43.5573 83.7477 43.0674C83.4992 42.6537 83.0971 42.4088 82.5908 42.5131C82.0844 42.6174 81.877 42.9819 81.8289 43.5866L80.6568 42.6807C81.2733 42.5365 81.816 42.4744 82.2978 42.2775C82.7795 42.0807 83.1979 41.756 83.6375 41.4912C83.709 41.6459 83.7465 41.9119 83.893 42.0021C84.2113 42.2176 84.5703 42.3656 84.9479 42.4369C85.3347 42.4897 85.5762 42.1768 85.6899 41.8135C85.793 41.4795 85.8282 41.1103 85.9852 40.8091C86.2115 40.3696 86.5197 39.9712 86.8057 39.5399C86.0227 38.6785 84.492 38.4746 83.4875 39.1403C82.81 39.588 82.8194 40.3474 83.5109 41.1068C82.0516 42.5576 79.1577 42.3526 77.9609 40.7212L79.2397 40.1974C79.2268 40.1915 79.2749 40.1974 79.2831 40.2208C79.4566 40.6896 79.7039 41.0787 80.2723 41.0974C80.8408 41.1162 81.1678 40.7329 81.4269 40.3099C81.5623 40.0658 81.6528 39.7995 81.6941 39.5235C81.8266 38.8121 82.2356 38.3246 82.8744 38.007C81.5394 36.7917 79.0065 37.1562 78.1438 38.668C77.8367 39.2012 78.0453 39.6735 78.7392 40.0192C78.0359 40.5337 77.7417 40.488 77.2612 39.8329C76.7923 39.1954 76.3704 38.5192 75.8371 37.9461C75.2744 37.3425 74.604 36.8398 74.0027 36.3112C74.5817 35.8354 75.2358 35.2928 75.8992 34.7596C75.9833 34.6994 76.0854 34.6697 76.1887 34.6752C77.4264 34.7385 78.663 34.8112 79.7742 34.8744C79.8152 35.4112 79.7144 35.894 79.909 36.1636C80.12 36.4542 80.5912 36.6323 80.9768 36.7015C82.1923 36.9359 83.6035 36.1155 84.2751 34.8264C84.4638 34.4643 84.5787 34.0635 84.7873 33.5291C83.8157 33.9381 83.1194 33.6638 82.483 33.1118C82.3381 33.0127 82.1804 32.9338 82.0141 32.8775C80.7951 32.3278 79.4765 32.9267 79.848 34.5744L76.409 34.251C76.7267 33.6837 77.042 33.1107 77.3725 32.547C77.4366 32.4682 77.5215 32.4089 77.6175 32.3759C78.268 32.0852 78.9209 31.7993 79.6007 31.5004C80.2559 32.2036 80.7377 32.1731 81.3812 31.2989C81.7754 30.7559 81.993 30.1047 82.0044 29.4337C82.0157 28.7628 81.8202 28.1047 81.4445 27.5487C81.2311 28.3491 80.6814 28.6034 79.9336 28.6667C79.5545 28.7221 79.2015 28.8922 78.9221 29.1542C78.2938 29.7273 78.5493 30.5441 79.5949 31.0961L77.7523 32.0337L77.6198 31.9317C78.1541 30.3856 78.2745 28.7267 77.9691 27.1197C78.1602 27.1197 78.3126 27.1197 78.4649 27.1197C78.6949 27.1266 78.9216 27.0638 79.1153 26.9396C79.309 26.8153 79.4606 26.6355 79.5503 26.4236C79.6612 26.2207 79.7034 25.9874 79.6704 25.7585C79.6374 25.5297 79.5311 25.3177 79.3675 25.1544C79.0793 24.849 78.7563 24.5784 78.4052 24.3481C77.5542 23.7879 77.4522 23.6344 77.4593 22.6523C76.3176 22.9746 75.3987 24.4946 75.5159 25.8669C75.531 26.0415 75.5572 26.2149 75.5944 26.3861C75.8159 27.4092 76.4958 27.6752 77.6398 27.1631C77.9433 29.0757 77.6093 30.843 76.6224 32.5657L76.0363 31.252C76.1629 31.1688 76.3129 31.0879 76.4442 30.9836C77.1182 30.4445 77.1076 29.3288 76.3575 28.9773C75.5053 28.5788 74.8665 28.0292 74.536 27.1315C73.4319 28.1651 73.0978 30.2793 73.8058 31.5497C74.2488 32.3442 75.1584 32.2716 75.7234 31.3961C76.4548 32.1438 76.4887 32.895 75.8183 33.665C74.8664 34.7743 73.6245 35.5969 72.2316 36.0405C72.2562 35.6151 72.2785 35.226 72.3019 34.8322C73.6405 34.6154 74.1914 33.8677 73.7976 32.7626C73.7294 32.5436 73.6119 32.3431 73.4541 32.1766C73.0884 31.8465 72.8 31.4398 72.6095 30.9854C72.4191 30.531 72.3313 30.0402 72.3523 29.548C71.1521 29.8339 69.9823 31.2578 69.8112 32.6853C69.7409 33.1881 69.7524 33.699 69.8452 34.1982C70.0737 35.2799 70.8286 35.5624 71.7417 34.9741C71.9398 35.8741 71.7311 36.303 70.8368 36.4343C69.6647 36.6077 68.4738 36.6558 67.29 36.7507C67.1824 36.7454 67.0758 36.7277 66.9723 36.698C67.1083 36.3593 67.2302 36.0581 67.3544 35.7475C67.5443 35.8282 67.7402 35.8937 67.9405 35.9432C68.1346 35.9836 68.336 35.9706 68.5233 35.9057C68.7105 35.8407 68.8767 35.7263 69.0042 35.5745C69.1316 35.4226 69.2155 35.2391 69.247 35.0434C69.2785 34.8478 69.2563 34.6472 69.1829 34.4631C69.0353 34.014 68.8126 33.5932 68.5242 33.2185C68.0354 32.6325 67.808 32.0325 68.0894 31.2871C66.6898 31.4043 65.2188 33.1001 65.2493 34.2721C65.2643 34.6386 65.3562 34.998 65.5189 35.3268C65.7662 35.8378 66.1378 35.9292 66.8668 35.7651C66.7649 36.5034 66.5527 36.6441 65.8295 36.6276C64.832 36.6066 63.8369 36.6452 62.8359 36.6605C62.6636 36.6605 62.4925 36.6745 62.2499 36.6851C62.4046 36.3112 62.537 35.9925 62.6706 35.6725C63.6423 36.2163 64.1241 36.0241 64.4769 34.9811C65.0102 33.4037 64.3667 31.6059 62.9789 30.9145C63.0364 31.7079 62.5898 32.1649 61.992 32.5657C61.6816 32.7943 61.4144 33.0765 61.2032 33.399C60.5831 34.2791 61.0039 35.2237 62.0635 35.3831C62.1467 35.3959 62.2299 35.3995 62.3167 35.4077C62.0823 36.494 61.7552 36.862 61.0027 36.8597C60.8242 34.1215 59.679 31.5358 57.7712 29.5632C58.4499 28.9023 59.0734 28.2155 59.7896 27.6448C60.0322 27.4514 60.5093 27.5522 60.8785 27.5182L60.9219 27.6483C60.848 27.7256 60.773 27.8018 60.7003 27.8827C60.2702 28.3514 60.2889 28.9374 60.766 29.371C61.6275 30.1597 62.6226 30.1703 63.674 29.8586C64.218 29.7014 64.725 29.4371 65.1653 29.081C65.6055 28.725 65.97 28.2845 66.2374 27.7854C65.2095 28.0092 64.5859 27.4795 64.069 26.7389C63.9709 26.6148 63.8597 26.5016 63.7373 26.4013C62.6519 25.4111 61.5196 25.7263 61.0988 27.1701L60.3147 27.0799C60.8468 25.1521 62.3319 24.4583 64.1182 24.1723C65.0925 24.0325 66.0851 24.0923 67.0356 24.3481C67.76 24.5274 68.0905 25.0208 68.3765 25.7076C68.1691 25.6853 68.0249 25.6607 67.8772 25.6536C67.7017 25.648 67.5271 25.6815 67.3663 25.7519C67.2054 25.8223 67.0623 25.9277 66.9474 26.0605C66.8325 26.1932 66.7487 26.3499 66.7021 26.5192C66.6555 26.6885 66.6473 26.866 66.6781 27.0389C66.9864 28.5108 68.7211 29.7941 70.2964 29.6722C69.8944 29.0288 70.062 28.4218 70.3808 27.8217C70.4793 27.6366 70.5508 27.4385 70.6328 27.244C70.845 26.7435 70.7934 26.2748 70.4055 25.8857C70.0175 25.4966 69.5264 25.4064 69.0071 25.6607C68.945 25.6912 68.8794 25.7122 68.7938 25.7474C68.6766 25.4814 68.5723 25.2271 68.4422 24.9212C69.7315 25.2962 70.9962 25.7861 72.139 24.7477C72.3898 25.0747 72.6079 25.4286 72.8985 25.7228C73.0604 25.886 73.2663 25.9985 73.491 26.0466C73.7157 26.0948 73.9496 26.0765 74.1641 25.994C74.3787 25.9115 74.5645 25.7683 74.699 25.582C74.8335 25.3956 74.9109 25.1742 74.9216 24.9446C74.9591 24.4729 74.9662 23.9992 74.9427 23.5266C74.8478 21.8355 74.8396 21.8355 75.4502 20.3741C73.5174 20.0834 71.9093 20.6518 70.6598 22.1402C70.0527 22.8644 70.3715 24.0047 71.2459 24.3997C71.3842 24.463 71.5295 24.511 71.7393 24.5919C71.4643 24.7656 71.1551 24.8782 70.8327 24.9219C70.5103 24.9656 70.1823 24.9393 69.871 24.845C68.7328 24.5063 67.6123 24.1043 66.4566 23.72L68.2406 21.0081C68.3578 21.1147 68.4539 21.2261 68.5699 21.321C68.7261 21.4565 68.9142 21.5503 69.1164 21.5935C69.3187 21.6367 69.5286 21.6279 69.7266 21.568C69.9245 21.508 70.1041 21.3989 70.2484 21.2508C70.3928 21.1027 70.4972 20.9204 70.552 20.721C70.6438 20.3838 70.6795 20.0338 70.6575 19.685C70.5813 18.4662 70.5684 18.4662 71.1708 17.5415C69.6471 16.6848 67.3544 17.3845 66.5808 18.9478C66.1636 19.7893 66.6523 20.5651 67.8608 20.844C67.2361 21.7265 66.6371 22.5832 66.0217 23.4223C65.9768 23.4711 65.9225 23.5103 65.8621 23.5377C65.8017 23.5651 65.7364 23.58 65.6701 23.5817C63.4431 23.5887 63.32 23.6098 61.4927 24.4114C62.0049 23.4082 61.6099 22.2855 62.5347 21.471C63.095 20.9741 63.4489 20.2452 63.9143 19.5959L64.1253 19.7776C64.6668 20.2463 65.3525 20.1561 65.7662 19.5713C66.7039 18.2365 66.6687 16.427 65.6045 14.8836C65.1966 14.2906 64.6422 13.7995 64.0596 13.2804C64.0596 14.4863 63.4103 15.1871 62.5112 15.7824C61.8783 16.2008 61.6239 16.9016 61.6157 17.6575C61.604 18.615 62.2569 19.1482 63.6681 19.2443C63.1407 20.0366 62.6589 20.7608 62.176 21.4839L62.0002 21.4323C61.9182 18.7521 60.9664 16.4481 59.0394 14.5179C59.1766 14.4581 59.2739 14.4113 59.3793 14.3714C59.9654 14.137 60.3041 13.5804 60.1998 13.0026C60.0826 12.3674 59.6138 11.9713 58.9515 11.9631C57.79 11.9467 57.3422 11.7943 55.8278 10.8861C55.4035 11.7777 55.3365 12.7979 55.6403 13.7374C55.7628 14.1212 55.9366 14.4866 56.1572 14.8238C56.9179 16.0309 58.015 16.0215 58.7487 14.8238C59.9443 15.8012 60.9933 18.5388 60.9488 19.9276L59.9326 19.3158C60.5573 18.2142 60.099 17.3353 58.8425 17.1864C58.7388 17.1685 58.6333 17.1634 58.5284 17.1712C57.6798 17.2884 56.8534 17.2966 56.1361 16.7024C55.6016 18.3994 56.8019 20.585 58.3971 20.9319C59.3958 21.1499 59.8904 20.6975 59.7321 19.7026C60.7495 20.0002 61.0977 20.5171 61.0051 21.5472C60.8606 23.28 60.2309 24.9371 59.1883 26.3287L58.3948 24.9927C59.016 24.6259 59.4028 24.102 59.2457 23.352C59.0887 22.6019 58.4967 22.1953 57.8087 21.9456C57.5725 21.881 57.3325 21.8309 57.0902 21.7956C56.2545 21.607 55.6672 21.0854 55.2511 20.3354C54.1599 21.9667 54.4576 24.6352 55.8466 25.922C56.0148 26.0755 56.2062 26.2013 56.4139 26.2947C57.2848 26.692 57.7712 26.447 58.1943 25.3267C58.4039 25.69 58.5929 26.0649 58.7605 26.4494C58.783 26.535 58.7849 26.6248 58.7662 26.7113C58.7475 26.7979 58.7085 26.8788 58.6526 26.9475C58.1056 27.4631 57.5383 27.9561 56.9507 28.4264C56.8523 28.505 56.5991 28.4804 56.4631 28.4077C55.6661 27.9694 54.8796 27.5131 54.1036 27.0389C53.9535 26.9451 53.8443 26.7982 53.7977 26.6275C53.4871 24.7653 52.6256 23.2395 51.1335 22.057C50.2333 21.3468 50.2134 21.0022 50.946 19.9698C51.0069 20.1338 51.0491 20.2768 51.1112 20.4092C51.1757 20.549 51.2699 20.6731 51.3871 20.7728C51.5043 20.8726 51.6418 20.9457 51.7901 20.9871C51.9384 21.0284 52.0939 21.0371 52.2459 21.0124C52.3978 20.9877 52.5426 20.9302 52.6701 20.844C54.2302 19.8268 54.9276 17.2556 54.0661 15.5188C53.6336 16.5383 52.8401 16.7868 51.8239 16.7903C50.5932 16.7903 49.8313 17.831 50.2497 18.8154C50.374 19.1072 50.6271 19.3439 50.817 19.6006C50.5826 20.0026 50.3353 20.421 50.0891 20.8393C48.372 19.2807 48.5173 15.7367 50.3669 14.266C50.4579 14.4674 50.5665 14.6603 50.6916 14.8425C51.0925 15.3312 51.8239 15.3195 52.2517 14.8109C53.1355 13.7562 53.357 12.5737 52.928 11.2681C52.8729 11.1029 52.8108 10.9412 52.7487 10.7783H52.3279C51.6469 11.0513 50.9811 11.3795 50.279 11.5787C49.598 11.7721 49.169 12.3135 49.3132 13.005C49.4304 13.537 49.6648 13.9179 50.0024 14.0984C49.6508 14.5671 49.2558 15.016 48.9745 15.5258C48.6931 16.0356 48.5478 16.5887 48.2841 17.2731L47.0487 15.214C47.33 15.1543 47.4812 15.132 47.6265 15.091C48.6334 14.8027 49.012 13.6214 48.3544 12.7635C47.9031 12.1776 47.5785 11.5588 47.698 10.7876H46.9608C45.798 11.4392 45.0854 12.4014 44.9517 13.7456C44.9181 14.0237 44.9324 14.3056 44.9939 14.5789C45.2424 15.5691 45.9082 15.7777 46.6654 15.1648C47.1999 16.0133 47.7351 16.8673 48.2712 17.7267C48.3062 17.7868 48.33 17.8527 48.3415 17.9212C48.5619 18.9338 48.7799 19.9487 49.0073 21.0011L47.473 20.2745C47.9641 19.7823 48.2372 19.3076 48.059 18.6924C48.0008 18.4521 47.8771 18.2327 47.7016 18.0585C47.5261 17.8843 47.3058 17.7621 47.0651 17.7056C45.8824 17.3903 45.8801 17.3868 45.2143 16.4903C44.0926 17.8333 44.5333 20.3799 46.0418 21.273C46.5493 21.573 46.9526 21.3655 47.2796 20.6741C47.9664 20.9343 48.6498 21.1909 49.332 21.4511C49.4158 21.473 49.4938 21.513 49.5605 21.5683C50.2181 22.289 50.8698 23.0168 51.5766 23.8008L50.2134 23.918C50.2134 23.7598 50.2263 23.5969 50.2134 23.4363C50.1976 23.1891 50.1085 22.9522 49.9573 22.756C49.8061 22.5597 49.5998 22.4131 49.3648 22.3347C48.9182 22.1601 48.4646 22.1929 48.1458 22.5504C47.4685 23.3433 46.5404 23.8809 45.5155 24.0739C45.8531 25.0817 46.4814 25.7603 47.4706 26.2091C47.3682 26.2611 47.2616 26.3043 47.1518 26.3381C45.5103 26.6565 43.9625 27.3433 42.6251 28.3468C42.352 28.5495 42.1562 28.5811 41.9019 28.3573C41.4448 27.9506 40.9888 27.5369 40.5059 27.1643C40.0781 26.8326 40.1097 26.4705 40.3488 26.0673C40.4813 25.8447 40.6302 25.6314 40.8177 25.3384C40.9724 25.908 41.1435 26.3931 41.7273 26.4424C42.3895 26.5045 42.9193 26.208 43.326 25.7017C44.5837 24.1219 44.7607 21.9515 43.748 20.3612C43.6703 20.4464 43.5975 20.5361 43.53 20.6296C43.0893 21.3327 42.4434 21.6843 41.6452 21.8437C41.2702 21.9188 40.9089 22.0508 40.5739 22.2351C39.6245 22.7637 39.1849 24.0844 40.5739 24.9892L39.7581 26.3873C39.7121 26.2747 39.6585 26.1655 39.5975 26.0603C38.5469 24.5747 37.9744 22.8041 37.9566 20.9847C37.9566 20.7116 38.191 20.3928 38.3973 20.1713C38.6036 19.9498 38.9294 19.8045 39.2412 19.6006C39.1052 20.7456 39.6339 21.1827 40.7063 20.8979C41.8374 20.5979 42.8302 19.2725 42.9568 17.8661C42.9885 17.5064 42.9568 17.1407 42.9568 16.6192C42.0894 17.3224 41.2057 17.1981 40.3137 17.1993C39.873 17.1993 39.3678 17.4595 39.0079 17.7466C38.5754 18.0982 38.6411 18.6338 39.049 19.3006L37.9812 19.9592C38.141 18.062 38.8925 16.2629 40.1297 14.8156C40.4227 15.0933 40.6466 15.4016 40.9501 15.5727C41.4354 15.841 41.9418 15.752 42.3672 15.3828C43.4972 14.4042 43.8546 12.2561 43.0986 10.8826C42.1434 11.6361 41.0556 11.9783 39.8378 11.9959C39.2412 12.0053 38.811 12.5245 38.7571 13.1057C38.6997 13.7351 39.124 14.2777 39.9198 14.5226C38.0269 16.4375 37.0446 18.731 36.9755 21.5109C36.2882 20.9081 35.7593 20.146 35.4353 19.2912C35.4822 19.2467 35.5045 19.2057 35.5279 19.2057C36.4762 19.1939 37.0329 18.8998 37.2521 18.2107C37.5428 17.2942 37.2158 16.5266 36.5758 15.8668C36.4516 15.7432 36.3117 15.6365 36.1597 15.5492C35.3275 15.0523 34.9782 14.2941 34.9782 13.3413C33.0114 14.3328 31.9998 17.1337 32.8965 19.0404C33.4462 20.2124 34.1143 20.3729 35.0063 19.6358C35.6361 20.4225 36.2652 21.2085 36.8934 21.9937C36.9518 22.0587 36.994 22.1366 37.0165 22.2211C37.1337 22.9242 37.2427 23.6274 37.3424 24.2544C36.5219 24.0352 35.6791 23.7856 34.8188 23.5899C34.4418 23.5025 34.0512 23.4922 33.6701 23.5594C33.1919 23.6532 32.9258 23.4821 32.6797 23.1082C32.1804 22.3511 31.6529 21.6116 31.1219 20.844C31.3481 20.7926 31.5705 20.7261 31.7877 20.6448C31.9435 20.5737 32.083 20.4712 32.1976 20.3438C32.3121 20.2164 32.3991 20.0669 32.4533 19.9044C32.5076 19.7419 32.5277 19.57 32.5126 19.3994C32.4975 19.2288 32.4475 19.0631 32.3655 18.9127C31.5287 17.3622 29.3884 16.713 27.7298 17.5626C28.4132 18.1568 28.4436 18.9103 28.3042 19.7201C28.2765 19.9992 28.294 20.281 28.3557 20.5546C28.3858 20.792 28.4865 21.015 28.6447 21.1947C28.8028 21.3743 29.0113 21.5024 29.243 21.5624C29.74 21.7101 30.1807 21.5706 30.5324 21.1897C30.5898 21.1135 30.6403 21.0323 30.6836 20.9472C31.32 21.9081 31.9061 22.793 32.5261 23.727C32.2308 23.8243 31.926 23.9227 31.6224 24.0235C30.8746 24.2708 30.1256 24.5157 29.379 24.7677C29.0304 24.8939 28.6592 24.9457 28.2893 24.9197C27.9194 24.8936 27.5592 24.7903 27.2317 24.6165C27.2864 24.5785 27.3436 24.544 27.4028 24.5134C28.766 23.9918 29.0203 22.7941 27.9889 21.764C26.8039 20.585 25.2168 20.0928 23.5184 20.3952C23.5355 20.4719 23.5627 20.546 23.5993 20.6155C24.1185 21.3468 24.2064 22.1542 24.0963 23.0238C24.0362 23.5979 24.0155 24.1755 24.0341 24.7524C24.04 25.3384 24.2686 25.813 24.8745 26.0146C25.3891 26.1881 25.9294 25.9841 26.3432 25.4474C26.5026 25.2208 26.6501 24.9861 26.7851 24.7442C27.9326 25.5294 28.2127 25.5458 30.5066 24.9399C30.3999 25.2095 30.3003 25.4603 30.1866 25.7451C30.0366 25.6888 29.8982 25.6279 29.7552 25.5857C29.5465 25.5121 29.3206 25.5022 29.1063 25.5573C28.8919 25.6124 28.6988 25.73 28.5515 25.8951C28.3951 26.039 28.2848 26.2259 28.2343 26.4323C28.1838 26.6387 28.1955 26.8555 28.2678 27.0553C28.3461 27.3065 28.4461 27.5504 28.5667 27.7842C28.8949 28.3971 29.0953 29.0124 28.6699 29.6781C30.2628 29.7882 31.9975 28.4968 32.2882 27.033C32.3166 26.8642 32.3082 26.6913 32.2634 26.526C32.2186 26.3608 32.1385 26.2073 32.0287 26.076C31.9189 25.9446 31.7819 25.8387 31.6272 25.7654C31.4724 25.6921 31.3037 25.6532 31.1325 25.6513C30.956 25.6645 30.7803 25.6872 30.6062 25.7193C30.8465 25.0583 31.1559 24.5649 31.8404 24.3762C33.8037 23.836 35.6627 24.0645 37.4033 25.1216C37.6428 25.2889 37.8428 25.5065 37.9894 25.7591C38.2531 26.167 38.4723 26.6041 38.7266 27.0611L37.9062 27.1783C37.7889 26.91 37.6987 26.6381 37.5463 26.4131C37.4484 26.2666 37.3223 26.1412 37.1754 26.0441C37.0285 25.9469 36.8637 25.88 36.6906 25.8473C36.5175 25.8146 36.3397 25.8167 36.1674 25.8534C35.9951 25.8902 35.8319 25.9609 35.6873 26.0615C35.3341 26.2898 35.0231 26.5777 34.7684 26.9123C34.2714 27.6155 33.6467 27.946 32.7817 27.8018C33.3583 29.3031 35.7893 30.4515 37.2685 29.9242C37.5645 29.8157 37.8414 29.661 38.089 29.466C38.7559 28.9409 38.7348 28.3936 38.0327 27.6295C38.6059 27.483 39.0876 27.4244 39.5389 27.9706C40.016 28.5436 40.6266 29.003 41.2162 29.5456C39.2998 31.5754 38.1687 34.006 37.9718 36.8304C37.2439 36.9359 36.8946 36.5585 36.652 35.4323C36.8386 35.4048 37.0236 35.3676 37.2064 35.3209C37.9237 35.0983 38.2906 34.3318 37.9097 33.6873C37.6341 33.2231 37.2725 32.8158 36.8442 32.4872C36.3121 32.0864 35.9499 31.6586 36.005 30.8465C35.726 31.0656 35.5021 31.2098 35.3134 31.3926C34.8224 31.8873 34.4903 32.5173 34.3595 33.202C34.2288 33.8866 34.3055 34.5946 34.5797 35.2354C34.9583 36.0827 35.4869 36.2268 36.2793 35.6479L36.6766 36.5855C35.8901 36.5855 35.1247 36.5855 34.3605 36.5855C33.9749 36.5855 33.5881 36.5972 33.2036 36.6241C32.4113 36.6792 32.328 36.6241 32.0409 35.7499C32.5871 35.9151 33.0958 35.9468 33.424 35.4077C33.6107 35.1183 33.7187 34.7853 33.7374 34.4415C33.7561 34.0977 33.6849 33.7549 33.5306 33.447C33.009 32.3196 32.144 31.5954 30.8348 31.2063C31.2098 32.077 30.8992 32.6923 30.3999 33.2947C30.1374 33.6099 29.9733 34.0154 29.8045 34.3986C29.6971 34.6138 29.667 34.8594 29.7193 35.0941C29.7716 35.3289 29.9031 35.5385 30.0916 35.6878C30.2649 35.8535 30.488 35.9575 30.7263 35.9838C30.9647 36.01 31.205 35.9571 31.4103 35.8331L31.6025 35.7311L32.0045 36.7214C31.7622 36.7593 31.5172 36.7773 31.272 36.7753C30.1936 36.6757 29.1094 36.5972 28.0404 36.4296C27.2762 36.3124 27.2129 36.1647 27.1625 35.3749C27.1543 35.2577 27.1625 35.1311 27.1625 35.0151C27.2106 34.9963 27.2516 34.967 27.2668 34.9764C28.1436 35.5624 28.8562 35.2776 29.1422 34.2217C29.6275 32.4063 28.4917 30.2242 26.6632 29.5339C26.6456 29.671 26.6233 29.7988 26.614 29.9265C26.5559 30.7186 26.2215 31.4652 25.6692 32.036C25.4067 32.314 25.217 32.6526 25.1172 33.0216C24.871 34.0611 25.4923 34.7502 26.6632 34.8006C26.6925 35.1909 26.7218 35.5835 26.7546 36.0358C25.6254 35.6892 24.5922 35.085 23.7364 34.2709C23.5829 34.1279 23.4375 33.9744 23.2957 33.8185C22.4752 32.9138 22.4576 32.4122 23.2265 31.3657C23.3166 31.5092 23.4161 31.6466 23.5243 31.777C23.6349 31.8957 23.7724 31.9861 23.9252 32.0407C24.078 32.0952 24.2416 32.1123 24.4024 32.0905C24.5632 32.0687 24.7164 32.0086 24.8491 31.9153C24.9819 31.822 25.0903 31.6982 25.1652 31.5543C25.8685 30.2476 25.545 28.212 24.4373 27.1244C24.1127 28.0292 23.4692 28.5753 22.617 28.9749C21.8681 29.3265 21.854 30.4457 22.5233 30.9848C22.6533 31.079 22.7887 31.1655 22.9288 31.2438L22.3639 32.5645C21.3641 30.8606 21.0417 29.0944 21.3348 27.1443C21.4918 27.2229 21.6055 27.2862 21.7251 27.3401C21.997 27.4676 22.3078 27.4846 22.592 27.3876C22.8763 27.2905 23.1117 27.0869 23.2488 26.8197C23.9427 25.3689 23.0566 23.2031 21.4906 22.6301C21.6372 23.4949 21.2222 24.02 20.4955 24.388C20.2088 24.5576 19.9488 24.7689 19.7243 25.0149C19.2917 25.4392 19.1992 25.9666 19.4371 26.4529C19.675 26.9393 20.09 27.1561 20.6924 27.115C20.7756 27.1092 20.86 27.0998 21.0019 27.0858C20.7018 28.7476 20.7897 30.3508 21.3476 31.9176L21.2492 32.0348L19.4758 31.1676C19.5191 31.0446 19.5203 31.0012 19.5391 30.9918C20.2037 30.6402 20.431 30.2887 20.3595 29.7367C20.2927 29.2562 19.8403 28.8167 19.2425 28.6819C19.0222 28.6315 18.7901 28.6327 18.5662 28.5976C18.0727 28.5225 17.7985 28.2542 17.5324 27.6014C16.7822 28.4136 16.7635 30.0625 17.4972 31.1699C17.604 31.3304 17.7248 31.481 17.8582 31.62C18.3634 32.1532 18.8604 32.0887 19.3468 31.4946C20.0442 31.7969 20.7276 32.0864 21.4039 32.3911C21.5091 32.4463 21.5959 32.531 21.6536 32.6349C21.9618 33.1611 22.2572 33.6955 22.5666 34.2428L19.096 34.5709C19.1206 34.4385 19.157 34.292 19.1745 34.142C19.2683 33.304 18.626 32.5915 17.7879 32.6911C17.3331 32.7462 16.8291 32.8775 16.4681 33.1411C15.8012 33.6263 15.146 33.9205 14.3231 33.583C14.4251 35.4018 16.3779 36.9956 18.0739 36.6991C19.1534 36.5105 19.4312 36.037 19.0116 34.8803C20.3068 34.8088 21.5598 34.7373 22.8128 34.6752C22.916 34.6771 23.0156 34.7138 23.0953 34.7795C23.7458 35.3022 24.3905 35.8342 25.0808 36.4003C23.4926 37.0683 22.6885 38.5238 21.718 39.8141C21.2128 40.4857 21.0007 40.5279 20.3115 40.0895C20.5213 39.8083 20.8975 39.527 20.9046 39.2387C20.9128 38.8977 20.6702 38.477 20.417 38.2156C19.2449 37.0308 17.3132 36.9429 16.0801 38.0117C16.8807 38.3633 17.1972 39.0137 17.3496 39.8188C17.4105 40.1376 17.6402 40.4575 17.8688 40.7072C18.4549 41.3447 19.2296 41.1994 19.6035 40.4153C19.6399 40.3392 19.6703 40.2595 19.7032 40.181L21.0089 40.7177C19.8368 42.3315 17.1409 42.5447 15.4437 41.1197C15.5609 40.9954 15.6781 40.8853 15.7813 40.7458C15.8684 40.6246 15.9308 40.4873 15.9647 40.3419C15.9987 40.1965 16.0037 40.0458 15.9793 39.8985C15.9549 39.7512 15.9016 39.6101 15.8226 39.4835C15.7436 39.3568 15.6403 39.2469 15.5187 39.1602C14.5306 38.457 12.933 38.6621 12.0774 39.6372C12.8006 40.0731 13.0221 40.7962 13.1967 41.565C13.3339 42.1662 13.7558 42.4709 14.2774 42.4498C14.8307 42.4287 15.1975 42.0982 15.3546 41.415C16.1424 42.1775 17.1814 42.6264 18.2767 42.6772L17.2534 43.528C17.1737 43.4553 17.1362 43.4354 17.1292 43.4108C17.0741 42.942 16.8479 42.608 16.379 42.5096C15.9102 42.4112 15.5035 42.642 15.2561 43.0288C14.9455 43.5139 14.588 43.8397 13.9668 43.7038C14.2962 45.1101 15.8258 45.8461 17.0694 45.2343C17.6754 44.9367 17.7492 44.5148 17.3285 43.828C17.741 43.4471 18.1489 43.0674 18.5627 42.6948C18.6537 42.6153 18.7565 42.5504 18.8674 42.5026C19.709 42.1346 20.5529 41.7724 21.466 41.3787C21.3676 41.824 21.2609 42.3162 21.1296 42.9104C20.9632 42.7358 20.8952 42.6549 20.812 42.5799C20.3349 42.1275 19.6762 42.1568 19.3246 42.7205C19.0949 43.088 18.9467 43.5004 18.8897 43.93C18.7936 44.7363 18.7725 44.8757 18.1864 45.4394C18.8475 46.0313 20.1029 46.0981 20.9433 45.4699C21.3799 45.1278 21.7367 44.6947 21.9888 44.2007C22.3545 43.4975 22.1634 43.1917 21.4789 43.0159L21.8001 41.0646C21.8118 40.9955 21.8001 40.9111 21.8411 40.863C22.4014 40.1517 22.9663 39.445 23.5723 38.6844C23.6509 39.1016 23.7153 39.4403 23.7868 39.82C23.6696 39.8563 23.5348 39.8903 23.4071 39.9372C22.6944 40.1798 22.3768 40.9286 22.7507 41.5884C22.9304 41.9091 23.169 42.193 23.4539 42.4252C24.3623 43.1354 24.3741 43.1202 24.6858 44.1503C26.2412 43.4694 26.8918 41.0388 25.879 39.6969C25.4899 39.179 24.9414 39.1438 24.2088 39.5915C23.795 38.6938 23.9849 38.0023 24.8183 37.5136C25.184 37.3075 25.5677 37.1349 25.9646 36.998C26.1434 36.9411 26.3359 36.9436 26.5132 37.005C27.9713 37.5277 29.461 37.7668 31.0926 37.5441L30.2639 38.6856C30.1034 38.5215 29.9306 38.3699 29.747 38.232C29.5079 38.0778 29.218 38.0228 28.9389 38.0788C28.6599 38.1348 28.4137 38.2974 28.2526 38.532C27.8177 39.118 27.6044 39.7966 27.7263 40.515C27.8634 41.3177 27.6853 41.9682 27.0289 42.4721C28.1072 43.1284 29.8713 42.8307 30.8969 41.8041C31.1791 41.517 31.4194 41.1915 31.6107 40.8372C32.1968 39.7579 31.8897 39.1063 30.714 38.845C31.1254 37.8711 31.7982 37.3988 32.8133 37.455C33.8014 37.5089 34.786 37.6215 35.7893 37.7093L34.718 39.4075C34.6641 39.3922 34.5351 39.3442 34.4039 39.3149C33.5834 39.1332 32.7957 39.6278 32.7289 40.4693C32.6914 40.938 32.7535 41.49 32.9856 41.8756C33.4427 42.6291 33.5658 43.3217 33.0594 44.0823C34.5832 44.2124 36.2124 42.9502 36.6356 41.347C36.6993 41.1099 36.7417 40.8675 36.7622 40.6228C36.8442 39.5294 36.332 39.0899 35.2513 39.3547C35.3159 39.0805 35.4354 38.8221 35.6026 38.5953C35.7698 38.3685 35.9812 38.178 36.2242 38.0351C36.4047 37.9308 36.7129 38.0351 36.9614 38.068C37.7233 38.1547 38.0398 38.5367 38.1218 39.3512C38.2906 41.0306 38.9646 42.5588 39.9034 43.9651C39.9996 44.1081 40.0945 44.2534 40.2258 44.4527C39.8741 44.5089 39.5659 44.5488 39.2635 44.6074C37.244 44.9865 35.4228 46.0654 34.1202 47.6544C33.8389 47.9896 33.5341 48.3107 33.2669 48.6541C33.0805 48.8884 32.8789 48.9377 32.6316 48.7841C32.1042 48.4572 31.5767 48.1232 31.0551 47.7927L31.109 47.6415C31.2462 47.5981 31.388 47.5642 31.5205 47.5102C31.6516 47.4598 31.7712 47.3834 31.8722 47.2857C31.9732 47.188 32.0534 47.071 32.1081 46.9415C32.1628 46.8121 32.1909 46.673 32.1906 46.5325C32.1903 46.392 32.1617 46.253 32.1065 46.1238C31.2427 43.9839 28.1787 43.0229 26.3397 44.2019C26.6163 44.537 26.9644 44.864 27.193 45.2566C27.414 45.632 27.5601 46.0467 27.6232 46.4778C27.8494 48.2263 29.0801 48.8134 30.4773 47.8501L32.641 49.4287C31.5521 50.3135 30.4527 51.2241 29.3262 52.1007C29.1809 52.2179 28.8855 52.1992 28.6792 52.1546C28.2256 52.0574 27.7837 51.905 27.2551 51.7503C27.4813 51.571 27.6232 51.4761 27.7439 51.3589C27.9413 51.1816 28.0871 50.9543 28.1657 50.7009C28.2443 50.4475 28.2529 50.1776 28.1905 49.9197C28.0627 49.3467 27.7216 48.8966 27.1356 48.7888C25.9353 48.5662 25.0972 47.9181 24.5569 46.7485C23.652 47.9333 23.4012 49.1908 23.7599 50.5479C23.9047 51.0524 24.1274 51.5312 24.4198 51.9671C25.1137 53.0406 26.09 53.0312 26.8097 51.9777L28.4624 52.6082C27.0019 53.4496 25.4876 54.0004 23.8196 53.6547C22.9066 53.4648 22.0333 53.0687 21.1589 52.7171C20.7768 52.5648 20.703 52.1148 20.8694 51.428C21.2574 51.6905 21.7215 51.946 22.0966 51.6003C22.4177 51.2931 22.6383 50.896 22.7296 50.4612C23.0343 48.8287 21.9091 47.2489 20.3771 47.1188C20.5576 47.7903 20.2376 48.2907 19.8626 48.7982C19.6164 49.1596 19.4377 49.5626 19.3351 49.9877C19.0737 50.9651 19.4934 51.4632 20.5424 51.4444V52.4886C19.7336 51.7737 18.9706 51.1889 18.3154 50.4963C17.5453 49.683 16.8725 48.7771 15.7719 48.3247C15.8563 48.1747 15.9184 48.0728 15.9723 47.9661C16.065 47.7949 16.1201 47.6058 16.134 47.4116C16.148 47.2174 16.1203 47.0224 16.053 46.8397C15.9857 46.657 15.8803 46.4907 15.7437 46.3519C15.6071 46.2131 15.4425 46.105 15.2608 46.0348C13.873 45.4711 12.1196 45.9105 11.1408 47.0684L10.7669 47.5067V47.6122C11.714 47.6767 12.3481 48.1888 12.79 48.9963C12.9765 49.3526 13.1892 49.6946 13.4265 50.0194C13.8496 50.5713 14.3489 50.7284 14.8963 50.5385C15.3874 50.3674 15.8246 49.7533 15.8481 49.1955C15.843 49.0697 15.87 48.9447 15.9266 48.8322C16.4107 49.2892 16.9756 49.6865 17.3613 50.2151C18.5463 51.8359 20.0021 53.1074 21.8821 53.9653C21.4953 54.6309 20.9995 55.1911 20.3302 55.4712C20.0337 55.5954 19.5754 55.3364 19.1898 55.2509L19.2085 55.0704C19.2988 55.0317 19.3925 55.0001 19.4793 54.9532C20.0653 54.645 20.1673 54.0637 19.7289 53.5539C18.7338 52.3972 16.9967 52.1347 15.6113 52.975C16.2876 53.4555 16.5267 54.1282 16.5842 54.918C16.617 55.3634 16.951 55.6681 17.3835 55.8087C17.8899 55.974 18.333 55.8087 18.8323 55.2813L19.6528 55.8204C18.0938 56.7134 15.6547 56.3021 14.3161 55.0493C14.4775 54.949 14.6273 54.8311 14.7627 54.6977C14.9642 54.4503 15.0599 54.1334 15.0289 53.8158C14.998 53.4983 14.8429 53.2058 14.5974 53.0019C13.6328 52.2437 11.8066 52.3199 10.8584 53.1777C11.4011 53.6465 11.6425 54.2594 11.7492 54.9602C11.8242 55.4442 12.0047 55.9189 12.5286 56.1322C13.1756 56.397 13.723 56.1322 14.118 55.429L16.9885 56.901L15.582 58.3659C15.5351 58.1034 15.521 57.9955 15.4964 57.8889C15.3534 57.2924 14.7932 56.9807 14.2458 57.2678C13.8886 57.4467 13.5825 57.7132 13.3561 58.0424C13.0362 58.5534 12.6705 58.9202 11.9918 58.98C12.354 59.8167 12.9436 60.3007 13.7746 60.4871C14.6056 60.6734 15.3534 60.4871 15.9629 59.9011C16.3673 59.5097 16.2642 59.0702 15.7742 58.612C16.2794 58.0401 16.7764 57.4647 17.2909 56.9056C17.3916 56.8184 17.5212 56.772 17.6543 56.7756C19.6012 56.8072 21.1191 55.9107 22.4131 54.5583C22.6346 54.3239 22.8081 54.2418 23.1269 54.3239C23.5782 54.4411 24.0494 54.4751 24.5745 54.5583C24.2357 54.8688 23.9286 55.1243 23.652 55.4079C22.8937 56.1849 22.2971 57.0803 22.0052 58.1245C21.8212 58.7854 21.384 59.0444 20.7932 59.2179C20.7673 58.9905 20.725 58.7653 20.6666 58.544C20.4615 57.9393 19.7958 57.6428 19.164 57.8514C17.7774 58.3108 16.937 60.1824 17.5066 61.611C18.0927 61.1258 18.7116 61.1633 19.3668 61.4633C19.5964 61.5521 19.844 61.5847 20.0888 61.5582C20.5928 61.5254 21.0652 61.3953 21.2937 60.8668C21.5129 60.3605 21.3301 59.948 20.9421 59.5472L21.7954 59.1733C21.3512 60.9746 22.133 62.9235 20.5682 64.4236C20.5682 64.0966 20.6057 63.8165 20.5612 63.5517C20.4967 63.1851 20.2938 62.8573 19.9946 62.636C19.6953 62.4146 19.3225 62.3166 18.953 62.3622C16.9838 62.6247 15.2257 64.2443 14.7943 66.1956C14.7824 66.29 14.7765 66.3852 14.7768 66.4804C15.7613 66.0116 16.5127 66.4311 17.298 66.9315C17.8172 67.2632 18.4431 67.4507 19.0433 67.6265C19.3472 67.7238 19.6752 67.7149 19.9734 67.6011C20.2716 67.4874 20.5223 67.2757 20.6842 67.0007C21.064 66.3667 20.996 65.7643 20.4791 65.1725C20.4451 65.135 20.417 65.0904 20.3619 65.0201C21.534 64.208 22.0872 63.0747 22.1001 61.5969L22.7624 62.143C22.1974 63.0501 22.1763 63.7146 22.7835 64.2115C23.0496 64.426 23.5114 64.6006 23.8196 64.5267C24.6249 64.3334 25.2684 64.5162 25.8931 65.1127C26.2312 64.4293 26.3219 63.6499 26.1498 62.9071C26.0118 62.3502 25.808 61.8116 25.5427 61.3027C25.2473 60.725 24.7421 60.4179 24.0623 60.5586C23.4375 60.6886 23.1246 61.1187 23.032 61.7305C22.3732 61.427 22.0181 60.8164 22.1154 60.1414C22.4272 57.9768 23.4551 56.2318 25.225 54.8325C25.2778 55.3212 25.3223 55.7419 25.3704 56.2001C25.2531 56.2154 25.1183 56.2271 24.9871 56.2494C24.6986 56.2923 24.431 56.425 24.2223 56.6287C24.0136 56.8323 23.8743 57.0965 23.8243 57.3838C23.7188 57.9768 23.9486 58.4737 24.5053 58.7901C25.2953 59.2437 25.8943 59.8109 25.7853 60.8269C26.873 60.5926 27.9478 59.3421 28.1096 58.0483C28.1683 57.5627 28.1482 57.0707 28.0498 56.5916C27.8154 55.4853 26.8355 55.1641 25.933 55.8579L25.7103 56.0267C25.6749 55.751 25.6546 55.4737 25.6493 55.1958C25.6657 54.7118 25.8497 54.4352 26.4077 54.3262C27.8881 54.0356 29.1891 53.2902 30.4714 52.5261C30.6906 52.396 30.9027 52.2542 31.1524 52.0972C31.1981 52.7593 31.238 53.3465 31.2813 53.9805C31.1794 53.9664 31.0704 53.9489 30.9614 53.936C30.094 53.8305 29.3907 54.3708 29.4376 55.2474C29.4704 55.8333 29.6099 56.4955 29.9264 56.9736C30.4609 57.7823 30.7867 58.5651 30.4503 59.5308C31.8885 59.3456 33.2986 57.958 33.5775 56.3982C33.6756 55.8134 33.6787 55.2167 33.5869 54.6309C33.4169 53.5023 32.7992 53.2176 31.7045 53.7789C31.7045 53.098 31.6963 52.4675 31.7139 51.837C31.7396 51.7202 31.8061 51.6164 31.9014 51.544C33.122 50.4362 34.3453 49.333 35.5713 48.2345C35.7366 48.0857 35.9159 47.9509 36.1761 47.7399V49.7264C36.0073 49.6725 35.8643 49.6209 35.719 49.5799C35.5596 49.5298 35.3915 49.5138 35.2255 49.5329C35.0595 49.5521 34.8995 49.606 34.7557 49.6911C34.612 49.7763 34.4878 49.8907 34.3912 50.027C34.2946 50.1633 34.2279 50.3184 34.1952 50.4823C34.1206 50.7917 34.1159 51.1138 34.1816 51.4252C34.2473 51.7366 34.3817 52.0295 34.575 52.2824C35.2372 53.1461 35.3955 54.0403 34.9266 55.0294C36.2781 55.1266 37.8393 54.0707 38.3316 52.6492C38.5303 52.0724 38.6166 51.463 38.586 50.8538C38.5157 49.6361 37.871 49.2658 36.7106 49.6936C36.6731 48.9623 36.6215 48.2392 36.6121 47.5161C36.6121 47.3989 36.7751 47.2477 36.8993 47.1798C37.9537 46.6 39.1288 46.2742 40.3313 46.2281V47.1423V47.1821H40.3863C40.5834 47.3251 40.7516 47.504 40.8822 47.7095C40.8434 47.7026 40.8037 47.7026 40.7649 47.7095C40.3184 47.7774 39.6409 49.3092 39.458 50.4049C39.4487 50.4319 39.4381 50.4588 39.4287 50.487C39.4255 50.4942 39.4227 50.5016 39.4205 50.5092C39.4111 50.535 39.4029 50.562 39.3936 50.5901L39.3865 50.6112C39.376 50.6452 39.3654 50.6803 39.3537 50.7167C39.2857 50.951 39.2213 51.2182 39.1615 51.5077V51.5253C38.9984 52.3091 38.9023 53.1054 38.8743 53.9055C38.8743 54.0051 38.8743 54.1223 38.8743 54.2489C38.8875 54.7141 38.8746 55.1797 38.8356 55.6435C38.8289 55.6687 38.8258 55.6947 38.8263 55.7208C38.8192 55.77 38.811 55.8181 38.8016 55.8603C38.7195 56.1389 38.6221 56.4128 38.5098 56.6806C38.1253 57.6744 37.844 58.4561 38.0023 58.7386C38.089 58.8932 38.3351 58.9589 38.5954 59.028C38.7864 59.0796 39.0478 59.1452 39.0724 59.239C39.0818 59.273 39.0947 59.3175 39.1111 59.3714C39.1427 59.4804 39.1849 59.6234 39.2283 59.7909C39.1711 59.8312 39.1252 59.8853 39.0948 59.9483C39.0644 60.0113 39.0507 60.081 39.0548 60.1507C39.0456 60.2797 39.0799 60.408 39.1521 60.5152C39.1022 60.6046 39.072 60.7037 39.0635 60.8058C39.055 60.9079 39.0684 61.0106 39.1029 61.107C39.1315 61.1717 39.1769 61.2276 39.2344 61.2688C39.2919 61.31 39.3594 61.3351 39.4299 61.3414C39.4076 62.5134 39.4299 63.0806 39.6549 63.1685C39.875 63.2221 40.1013 63.2457 40.3277 63.2388C40.5427 63.2412 40.7574 63.22 40.9677 63.1755C40.2645 64.1599 38.9997 64.5549 38.8755 64.5912H38.8063V66.9351L34.8047 66.9128C34.8147 66.9701 34.8202 67.0281 34.8211 67.0862C34.6336 67.0862 34.4531 67.0804 34.2714 67.0862C32.5214 67.1437 30.7551 67.0956 29.025 67.3007C27.9701 67.4249 26.9152 67.8398 25.9447 68.298C23.366 69.511 20.751 70.5868 18.0282 71.4095C17.9736 71.4231 17.9224 71.4475 17.8775 71.4814C17.8326 71.5152 17.7949 71.5577 17.7668 71.6064H45.0479C44.5942 72.5873 43.8689 73.4178 42.958 73.9995C42.8994 74.0393 42.8408 74.071 42.7775 74.1085C41.7495 74.7495 40.7157 74.9874 39.5858 74.3065C38.8227 73.846 37.9941 73.4956 37.2158 73.0561C35.481 72.0775 33.7229 72.2357 32.1932 73.5249C32.1097 73.5934 32.0132 73.6443 31.9094 73.6745C31.8057 73.7047 31.6969 73.7136 31.5896 73.7006C30.6589 73.4663 29.6966 73.2916 28.8293 72.9049C27.3055 72.2264 25.831 72.156 24.3213 72.8885C22.7853 73.6603 21.0143 73.8231 19.3632 73.3444C19.2824 73.3209 19.1992 73.3069 19.0362 73.2694C20.2869 74.0405 21.9079 74.0393 24.9918 73.2963C24.5674 74.146 23.9251 74.6816 23.1668 75.1456C22.7389 75.4093 22.3967 75.8242 22.0497 76.2004C21.9396 76.3176 21.9396 76.5414 21.9325 76.7418C22.3064 76.0387 22.9066 75.673 23.618 75.3906C24.0858 75.2075 24.512 74.9324 24.8714 74.5815C25.2309 74.2306 25.5161 73.8111 25.7103 73.3479C25.8755 72.9694 26.1146 72.8147 26.4721 72.8873C27.0324 73.0045 27.6068 73.1088 28.1272 73.3315C29.018 73.7124 29.8713 74.1788 30.7199 74.5995C30.2511 74.8878 29.6369 74.923 28.984 74.7929C27.5435 74.5046 26.1838 74.9242 25.1312 76.041C25.4325 75.8992 25.6071 75.8148 25.7818 75.734C26.682 75.3203 27.6443 75.1163 28.6019 75.3249C30.3061 75.6976 31.7596 75.366 32.9657 74.0452C33.0149 74.9417 32.7031 76.0375 32.1604 76.2508C31.4407 76.5379 30.6437 76.6317 30.026 76.7746C31.2368 77.3383 32.8461 76.8098 33.3079 75.5582C33.7193 76.0551 33.6865 76.525 33.1907 77.2727C33.8401 77.2282 34.2456 76.1746 33.8494 75.4339C33.3689 74.5409 33.4427 74.0804 34.0839 73.5354C34.4019 73.2521 34.8088 73.0884 35.2345 73.0726C35.6602 73.0567 36.0782 73.1897 36.4164 73.4487C35.5959 73.8003 35.3029 74.3933 35.3334 75.2886C35.3521 75.8383 35.0614 76.3984 34.9196 76.92C35.3744 76.5449 35.6416 75.9941 35.7647 75.3425C35.9171 74.5386 36.3976 74.0991 37.095 74.1014C37.2491 74.097 37.4011 74.1378 37.5322 74.2186C38.1347 74.6616 38.7231 75.1246 39.3338 75.5945C38.4617 76.191 37.8358 77.0465 37.3541 78.0474C37.224 78.3204 36.7868 78.597 36.4809 78.6075C34.9419 78.6638 33.4005 78.6415 31.8604 78.6228C31.6658 78.6228 31.4689 78.4868 31.2813 78.3966C30.666 78.1013 30.0623 77.7802 29.4388 77.5024C29.1021 77.3492 28.7377 77.2663 28.3678 77.2588C27.998 77.2514 27.6305 77.3195 27.2879 77.459C26.3901 77.8106 25.5298 77.997 24.6343 77.4004C24.2158 77.1215 23.7376 77.2645 23.2793 77.6747C24.006 77.4075 24.5628 77.6677 25.1242 78.12C25.6856 78.5724 26.3608 78.5279 27.0125 78.2161C27.4287 78.0051 27.8918 77.9036 28.3581 77.921C28.8244 77.9384 29.2786 78.0743 29.6779 78.3157C29.7598 78.3704 29.8381 78.4303 29.9123 78.495C28.3745 78.7142 26.7745 78.6943 26.151 80.4662C26.9164 79.7115 27.7919 79.1771 28.8093 79.1138V82.1667C29.2208 81.8526 29.4165 81.3464 29.352 80.7334C29.2348 79.6049 29.8455 78.9579 30.9836 79.047C31.9323 79.1251 32.8778 79.2337 33.8201 79.3728C30.986 80.9409 30.2768 81.9956 31.1102 83.6809C31.0317 82.7515 31.1817 82.0026 31.6728 81.3534C31.8903 81.0515 32.1675 80.7976 32.4873 80.6074C32.8071 80.4173 33.1627 80.2951 33.5318 80.2483C33.6303 80.9842 33.7381 81.6944 33.819 82.407C33.9163 83.2672 33.5646 83.941 32.8883 84.4801C33.6033 84.3629 34.262 83.5355 34.3183 82.6601C34.3335 82.4257 34.2644 82.1749 34.2632 81.9311C34.2632 81.5315 34.187 81.1002 34.3101 80.7393C34.786 79.3435 35.0591 79.3447 36.3871 79.6681C36.3027 80.5799 36.3003 81.5327 36.0929 82.4398C35.9933 82.8769 35.5584 83.2836 35.188 83.6023C34.6406 84.0711 34.3605 84.6207 34.3558 85.4528C34.5691 85.1012 34.6934 84.8282 34.8868 84.6125C35.0637 84.3946 35.2915 84.2235 35.5502 84.1145C36.6719 83.7336 37.3388 82.4503 37.0739 81.3194C37.0663 81.2501 37.0663 81.1801 37.0739 81.1108C38.3633 81.5514 38.7536 83.0023 37.8569 84.05C37.2931 84.7086 37.1079 85.4188 37.3939 86.2415C37.4459 86.3358 37.5051 86.4259 37.5709 86.5111C37.5451 85.5735 37.9366 84.9419 38.4547 84.3453C38.7208 84.0371 38.8614 83.6199 39.0607 83.2461C39.846 83.5449 39.9632 84.5715 39.2494 85.2677C38.7278 85.7751 38.6528 86.0728 38.8532 86.5474L40.1425 84.7825C41.167 85.1997 41.3475 85.4575 41.2971 86.4818C41.8175 86.047 41.5163 85.0087 40.9595 84.7461C40.4836 84.5211 40.3359 84.1203 40.1238 83.6809C39.8472 83.1066 39.2576 82.6753 39.0197 82.094C38.7559 81.446 38.4406 80.935 37.8557 80.5412C37.5475 80.335 37.3517 79.9623 36.9872 79.5228C38.2988 79.5111 38.8087 78.7857 39.2412 77.8821C39.8015 76.7102 40.9525 75.9449 42.2465 75.7726C42.1293 76.6656 42.4083 77.6395 41.5901 78.3392C41.3499 78.5622 41.0752 78.7451 40.7767 78.8806C40.1261 79.1419 39.7452 79.5662 39.6866 80.2869C39.6596 80.6104 39.5694 80.9291 39.5835 81.2983C39.7065 81.0194 39.8882 80.7498 39.9351 80.458C40.0242 79.9459 40.309 79.7127 40.7673 79.4924C41.3604 79.2052 41.8761 78.7599 42.4083 78.3919C42.4645 79.0072 42.291 79.701 42.0097 80.3748C41.5847 81.3689 41.5475 82.4861 41.9054 83.5062C41.9303 83.573 41.9748 83.6306 42.0332 83.6715C41.8808 82.1679 42.2676 80.8084 42.9369 79.4818C43.142 79.0763 43.0459 78.5056 43.0435 78.0099C43.0435 77.4907 42.9158 76.9668 42.9615 76.4559C43.0248 75.7644 43.3131 75.2617 44.116 75.0554C45.5062 74.7038 46.6173 73.8378 47.5503 72.7479L47.6886 72.7889C47.5644 73.492 47.487 74.2151 47.3077 74.9077C46.8241 76.8235 45.7996 78.5598 44.3563 79.9096C43.3073 80.9022 42.7587 82.1491 42.8783 83.5906C42.9767 84.7825 43.0013 85.9228 42.2922 86.9658C42.6825 86.5959 42.9828 86.1415 43.17 85.6374C43.3571 85.1334 43.4261 84.5931 43.3717 84.0582C43.2907 83.268 43.4518 82.4719 43.8335 81.7753C43.891 81.6745 43.9695 81.5854 44.0785 81.4354C44.2438 82.1679 44.5263 82.7456 45.1534 83.1043C45.2342 83.1511 45.287 83.4078 45.2342 83.5004C44.9863 83.9765 44.6968 84.4298 44.3692 84.8551C43.9238 85.393 43.7656 85.9392 43.9871 86.4818L45.7195 83.9035C45.7488 84.0266 45.8261 84.1602 45.8015 84.2727C45.6257 85.1001 45.8015 85.9064 45.8953 86.722C45.907 86.8275 45.716 86.9716 45.5976 87.0736C45.3948 87.2459 45.1745 87.3994 45.0443 87.6467C45.335 87.5225 45.6222 87.3889 45.9176 87.2787C46.2129 87.1685 46.329 86.9775 46.2446 86.6681C46.2024 86.5134 46.1719 86.3564 46.1203 86.1325C46.9631 86.6013 47.8434 86.8896 47.9571 87.9537C48.0133 87.117 47.7039 86.4654 46.9877 86.0622C46.3641 85.7106 46.1567 85.236 46.2844 84.5387C46.4321 83.7008 46.1262 82.9906 45.5179 82.4046C45.3421 82.2347 45.1276 82.0835 45.0115 81.8772C44.4911 80.9584 44.5005 80.6936 45.1475 80.1428C45.5952 79.7607 46.0055 79.3341 46.4978 78.9404C46.3407 80.0701 46.8353 80.9819 47.262 81.944C47.5574 82.6085 47.5984 83.3855 47.7308 84.0336C47.8936 83.5913 47.961 83.1195 47.9285 82.6493C47.8959 82.1791 47.7643 81.7211 47.5421 81.3053C47.1002 80.4592 46.9924 79.6201 47.2468 78.7177C47.507 77.7919 47.7699 76.866 48.0356 75.9402C48.0797 75.8188 48.1338 75.7012 48.1973 75.5886L48.338 75.5992C48.513 77.5274 48.6873 79.4556 48.8608 81.3839C48.9721 82.5921 48.8514 83.7488 48.3204 84.8692C47.9688 85.6192 48.0731 86.3622 48.5044 87.0267C48.3389 86.0473 48.5148 85.0407 49.0026 84.1754C49.1374 85.6204 49.2593 86.9248 49.3812 88.2303H49.5922C49.7141 86.9295 49.8364 85.6294 49.959 84.3301C50.4818 85.1376 50.626 86.0142 50.5146 86.9517C50.9085 86.3095 51.0034 85.5935 50.6764 84.9395C50.0329 83.6504 50.0141 82.3062 50.1372 80.9327C50.2978 79.1572 50.4783 77.3852 50.6506 75.6109L50.8135 75.5863C50.9975 76.1336 51.205 76.6739 51.3597 77.227C51.5332 77.8505 51.6574 78.488 51.8063 79.1197C51.9751 79.8381 51.8403 80.5026 51.5004 81.1495C50.9753 82.148 50.9143 83.3129 51.3914 84.2668C51.2085 82.9988 51.6457 82.0401 52.1181 81.0487C52.4123 80.4322 52.4404 79.6881 52.5963 78.9603C53.1179 79.4713 53.6969 80.015 54.2478 80.594C54.291 80.6582 54.3182 80.7317 54.3274 80.8085C54.3366 80.8853 54.3274 80.9632 54.3006 81.0358C54.0908 81.4647 53.9079 81.944 53.5809 82.2722C52.8987 82.9578 52.5389 83.7031 52.7135 84.677C52.8225 85.2876 52.6197 85.6884 52.0477 86.0259C51.3175 86.4572 50.9635 87.0877 51.0163 87.9584C51.1499 86.9201 51.9856 86.5873 52.7745 86.2005C52.7745 86.2005 52.8272 86.2345 52.8225 86.2462C52.5986 86.8931 52.7452 87.3092 53.4941 87.4181C53.6418 87.4381 53.7696 87.608 53.9067 87.7088L54.0157 87.5916C53.813 87.4264 53.6325 87.2119 53.4015 87.1076C53.1273 86.9822 53.0698 86.8662 53.105 86.5544C53.1788 85.9005 53.1566 85.236 53.1788 84.5762C53.1859 84.3594 53.2093 84.1438 53.2292 83.873L54.9757 86.4759C55.2101 86.0071 55.1058 85.4212 54.6241 84.8985C54.39 84.663 54.1793 84.4056 53.9946 84.1297C53.5949 83.4875 53.6688 83.3867 54.1693 82.8406C54.5092 82.4738 54.719 81.9874 54.9898 81.5514C55.502 82.2417 55.6848 83.0914 55.611 84.0125C55.5171 85.0198 55.8204 86.024 56.4561 86.8111C56.5088 86.8779 56.5311 86.9681 56.6448 86.9974C55.9825 85.9146 55.999 84.7707 56.0951 83.5859C56.2123 82.0812 55.5911 80.8412 54.5069 79.7935C52.601 77.9513 51.5766 75.6789 51.3515 73.042C51.3513 72.9437 51.3567 72.8455 51.3679 72.7479C51.7875 73.1346 52.1204 73.56 52.5541 73.8178C53.4039 74.3241 54.3123 74.7261 55.1902 75.1949C55.4164 75.3121 55.6754 75.4867 55.7763 75.7011C55.9498 76.0377 56.0547 76.4053 56.0849 76.7828C56.1151 77.1602 56.0699 77.5399 55.9521 77.8997C55.8464 78.2134 55.811 78.5464 55.8482 78.8753C55.8855 79.2042 55.9946 79.5208 56.1677 79.8029C56.8464 80.9983 57.0562 82.2945 56.9495 83.6562C57.4254 82.5874 57.3856 81.5221 56.9976 80.4252C56.755 79.742 56.6202 79.0189 56.4385 78.3157L56.6167 78.236C56.7025 78.3653 56.8041 78.4834 56.9191 78.5876C57.3668 78.9111 57.8005 79.2697 58.2928 79.5088C58.696 79.7045 58.9351 79.9307 59.0254 80.376C59.1028 80.698 59.2545 80.9974 59.4684 81.2503C59.4028 80.8623 59.3418 80.4744 59.2715 80.0877C59.2314 79.8185 59.1172 79.5658 58.9416 79.3578C58.7661 79.1498 58.5362 78.9947 58.2776 78.9099C57.2402 78.5255 56.7327 77.7028 56.8077 76.5977C56.8253 76.341 56.7585 76.0797 56.7245 75.7644C57.3722 75.79 57.9921 76.0346 58.4827 76.4582C58.9855 76.9024 59.4977 77.4098 59.7931 77.9958C60.2303 78.8677 60.7601 79.4842 61.7986 79.5193C61.7759 79.7438 61.6978 79.9592 61.5714 80.1461C61.445 80.3331 61.2742 80.4857 61.0742 80.5905C60.7991 80.7464 60.5602 80.9588 60.3731 81.2137C60.1861 81.4687 60.0551 81.7603 59.9888 82.0694C59.9537 82.2183 59.8001 82.339 59.7064 82.4761C59.3969 82.9285 59.0969 83.3879 58.7781 83.8344C58.5764 84.1192 58.4006 84.459 58.1252 84.6465C57.3891 85.1469 57.2027 85.9603 57.7466 86.6037C57.5579 85.5606 57.6681 85.3778 58.8261 84.7625L60.133 86.5263C60.3569 86.1454 60.2737 85.788 59.7345 85.2618C59.0312 84.5797 59.1168 83.7148 59.8623 83.2425C60.1963 83.7453 60.5655 84.2258 60.8515 84.7497C61.1281 85.2548 61.3204 85.8044 61.529 86.2732C61.9158 85.6978 61.8068 84.8668 61.1645 84.0934C60.5913 83.4078 60.4542 82.6472 60.8808 81.9616C61.1082 81.5995 61.4786 81.3264 61.7834 81.0124L61.9205 81.1143C61.9029 81.2983 61.8842 81.4811 61.8689 81.6651C61.8211 82.1569 61.9319 82.6511 62.1849 83.0755C62.4379 83.4999 62.8201 83.8324 63.2755 84.0242C63.5705 84.1421 63.8376 84.3205 64.0597 84.5477C64.2817 84.775 64.4538 85.0461 64.5648 85.3438C64.6222 84.7157 64.4945 84.1156 63.9565 83.7699C62.9813 83.1453 62.6859 82.2394 62.6765 81.1659C62.6765 80.9315 62.6226 80.6971 62.6648 80.4838C62.7257 80.1744 62.4304 79.7349 62.9074 79.5709C63.6658 79.3095 64.0151 79.4396 64.3902 80.0396C64.7852 80.669 64.8414 81.3405 64.6996 82.0624C64.4827 83.1558 65.0512 84.1227 66.0053 84.4789C65.7709 84.1063 65.4345 83.6949 65.2399 83.225C65.1157 82.9261 65.1684 82.537 65.2001 82.1937C65.2575 81.5632 65.3583 80.9373 65.4451 80.2858C66.8024 80.2225 67.9135 81.6229 67.896 83.5297C68.3906 82.8699 68.3179 81.685 67.6053 81.0288C67.0192 80.4932 66.2995 80.1064 65.6314 79.6635C65.4896 79.5697 65.3185 79.5205 65.1626 79.3447C65.8658 79.258 66.5691 79.1666 67.2724 79.0869C67.5678 79.0541 67.8655 79.0376 68.1632 79.0247C69.1126 78.9837 69.776 79.681 69.6506 80.6244C69.5627 81.2878 69.7514 81.8081 70.3058 82.2054C70.0151 81.5737 70.1124 80.9549 70.2343 80.3068C70.3047 79.94 70.1535 79.5299 70.0972 79.1044C71.1837 79.1548 72.0605 79.6998 72.8376 80.458C72.2082 78.7001 70.6364 78.7001 69.1759 78.5079C69.4736 78.0942 70.3351 77.8141 71.0841 77.9489C71.4426 78.027 71.7924 78.1404 72.1285 78.2876C72.8083 78.5583 73.4541 78.5079 74.0039 78.031C74.5032 77.5985 75.0271 77.445 75.6964 77.7028C75.3061 77.2633 74.7704 77.1168 74.3145 77.4227C73.5139 77.9536 72.7192 77.8598 71.9081 77.5317C71.5054 77.3554 71.0692 77.2687 70.6297 77.2774C70.1901 77.2861 69.7577 77.39 69.3623 77.5821C69.0106 77.7473 68.6285 77.8598 68.3214 78.0813C67.5642 78.6286 66.7051 78.7259 65.8248 78.7236C64.757 78.7236 63.688 78.6755 62.6202 78.6439C62.162 78.6298 61.7763 78.4282 61.5982 78.0157C61.1954 77.041 60.5219 76.202 59.6571 75.598C60.2643 75.1292 60.8562 74.6734 61.454 74.2233C62.0037 73.8085 62.9625 74.3171 63.1934 75.1257C63.3017 75.5469 63.4424 75.9591 63.6142 76.3586C63.7232 76.593 63.9447 76.7793 64.1698 76.9575C63.7396 76.3187 63.599 75.6379 63.647 74.8808C63.6857 74.2503 63.3692 73.8835 62.605 73.444C63.2438 72.7678 64.9188 72.9553 65.3747 74.1964C65.4919 74.5116 65.3536 74.9874 65.193 75.3238C64.7887 76.1711 64.9516 76.8473 65.7791 77.3372C65.6549 77.0301 65.4732 76.743 65.4275 76.4359C65.3818 76.1289 65.4931 75.8336 65.6091 75.5078C65.8436 76.2824 66.3124 76.7137 67.0825 76.8438C67.7799 76.961 68.4621 76.9844 69.0013 76.7828C68.339 76.6293 67.5092 76.5883 66.8352 76.2437C66.0358 75.8347 66.1319 74.8726 65.9104 73.9878C66.078 74.1284 66.1554 74.1847 66.2233 74.2515C67.2607 75.2722 68.489 75.6871 69.9249 75.3871C71.2283 75.1152 72.4578 75.3203 73.6499 75.8816C72.6266 74.8679 71.4076 74.5433 69.9952 74.7753C69.5592 74.8468 69.0962 74.7823 68.6484 74.7484C68.4867 74.7355 68.332 74.6312 68.0296 74.5011C68.4269 74.4062 68.6965 74.378 68.9333 74.2761C69.4783 74.0417 70.0011 73.7569 70.5426 73.5167C71.0337 73.2987 71.5248 73.0479 72.0429 72.9307C72.8435 72.7432 72.9806 72.8405 73.3592 73.5436C73.828 74.4062 74.5008 75.0671 75.4151 75.4187C76.1277 75.6953 76.7208 76.0726 77.0561 76.7934C77.0115 75.993 76.5649 75.4914 75.8839 75.1527C75.0705 74.7566 74.4516 74.1612 73.9558 73.2248C75.9918 74.0733 77.941 74.1624 79.8738 73.3057C79.7238 73.3362 79.5726 73.3608 79.4237 73.3983C77.832 73.7979 76.2766 73.669 74.8091 72.9518C73.208 72.1689 71.6561 72.1713 70.0655 72.967C69.5381 73.2307 68.9544 73.3924 68.3835 73.553C67.6475 73.7651 67.0216 73.7393 66.3136 73.2014C64.9364 72.1467 63.3962 72.1971 61.8595 73.0069C60.7449 73.5928 59.6032 74.1284 58.4604 74.6722C58.2914 74.7612 58.099 74.796 57.9095 74.7718C56.1314 74.3675 54.8327 73.3409 53.9243 71.6451H81.2112L81.2323 71.5279C81.0811 71.474 80.9299 71.4107 80.7764 71.3662C78.1777 70.5707 75.6481 69.565 73.2127 68.359C71.5329 67.5065 69.6718 67.0726 67.7881 67.0944L60.2338 67.0534V64.6041H60.1635C60.0404 64.5678 58.7722 64.174 58.0713 63.1884C58.282 63.2328 58.497 63.254 58.7124 63.2517C58.9388 63.2586 59.1651 63.2349 59.3852 63.1814C59.6196 63.0935 59.6325 62.5286 59.6103 61.3543C59.6807 61.348 59.7482 61.3229 59.8057 61.2817C59.8632 61.2405 59.9087 61.1846 59.9373 61.1199C59.9718 61.0234 59.9852 60.9206 59.9765 60.8185C59.9678 60.7164 59.9372 60.6174 59.8869 60.5281C59.9599 60.4212 59.9946 60.2927 59.9853 60.1636C59.989 60.0938 59.9748 60.0242 59.944 59.9615C59.9133 59.8987 59.867 59.8449 59.8095 59.805C59.8529 59.6374 59.8951 59.4933 59.9267 59.3855L59.9642 59.253C59.9888 59.164 60.2502 59.0936 60.4413 59.0421C60.7015 58.9729 60.9476 58.9073 61.0344 58.7526C61.1926 58.4702 60.9172 57.6885 60.5268 56.6947C60.414 56.427 60.3166 56.1531 60.235 55.8743C60.2256 55.8322 60.2174 55.7841 60.2104 55.7349C60.2109 55.7088 60.2077 55.6828 60.201 55.6575C60.1614 55.1938 60.1485 54.7282 60.1623 54.2629C60.1623 54.1352 60.1623 54.0192 60.1623 53.9196C60.1343 53.1194 60.0382 52.3232 59.8752 51.5394V51.5229C59.8365 51.3366 59.7966 51.1585 59.7579 50.9944C59.7345 50.903 59.7111 50.8151 59.6864 50.7331L59.6548 50.6311L59.6478 50.6077C59.6384 50.5807 59.6302 50.5549 59.6208 50.5291C59.6188 50.5211 59.616 50.5133 59.6126 50.5057C59.6032 50.4776 59.5927 50.4506 59.5833 50.4248C59.4004 49.3267 58.723 47.795 58.2764 47.7294C58.2376 47.7225 58.1979 47.7225 58.1592 47.7294C58.2897 47.524 58.458 47.345 58.655 47.202H58.7101V46.2481C59.424 46.285 60.1297 46.4179 60.8082 46.643L60.957 46.6957C62.3495 47.1926 62.3471 47.1926 62.3073 48.6634C62.2979 49.0068 62.3073 49.3514 62.3073 49.6725C61.9557 49.6221 61.6146 49.4685 61.3614 49.5623C61.0344 49.6795 60.6171 49.949 60.5233 50.2432C59.7849 52.5695 61.6544 55.0692 63.9389 55.0587C63.8979 54.5348 63.7959 54.0039 63.8381 53.4824C63.865 53.1578 64.1288 52.859 64.2554 52.5367C64.4616 52.007 64.7617 51.4819 64.8109 50.9311C64.9035 49.8928 64.0537 49.3185 63.075 49.6619C62.9965 49.6889 62.9215 49.7205 62.7984 49.7686V47.6884C63.5896 48.4044 64.2706 49.022 64.9528 49.6373C65.6349 50.2526 66.3159 50.8467 66.9782 51.4714C67.1392 51.6173 67.2459 51.8136 67.2806 52.0281C67.3216 52.5941 67.2958 53.1637 67.2958 53.7731C66.105 53.2199 65.5576 53.5223 65.3583 54.7516C64.9973 56.9783 66.3441 59.062 68.5535 59.5765C68.1562 58.5311 68.5535 57.7119 69.122 56.881C69.4068 56.4591 69.5217 55.8673 69.5533 55.3423C69.6108 54.3942 68.8993 53.8188 67.9546 53.9524C67.876 53.9629 67.7987 53.9828 67.6768 54.0075C67.7178 53.6559 67.7658 53.3711 67.7823 53.0781C67.7987 52.7851 67.7823 52.4839 67.7823 52.089C67.9803 52.2062 68.121 52.2917 68.2605 52.3773C69.6987 53.2609 71.1708 54.0637 72.8458 54.4223C72.943 54.4606 73.0301 54.5206 73.1004 54.5978C73.1707 54.675 73.2224 54.7673 73.2514 54.8677C73.3287 55.2134 73.3041 55.5814 73.3217 55.9388C73.2045 55.9493 73.1588 55.9669 73.1412 55.9529C72.0757 55.1138 71.0853 55.4899 70.8602 56.8213C70.566 58.5686 71.5764 60.3441 73.1904 60.8609C73.0732 59.8472 73.6593 59.2683 74.4411 58.81C75.0166 58.4737 75.2709 57.9041 75.135 57.3006C74.999 56.697 74.5254 56.2833 73.8667 56.2212L73.6135 56.2001C73.6534 55.763 73.6909 55.3493 73.7308 54.877C73.8448 54.9385 73.9545 55.0078 74.0589 55.0845C75.5768 56.3371 76.571 58.1121 76.8462 60.0605C76.9109 60.3819 76.8671 60.7157 76.7218 61.0096C76.5766 61.3035 76.338 61.5409 76.0433 61.6848C75.8242 61.3719 75.6577 61.0168 75.3893 60.7777C74.9204 60.3617 74.1527 60.4519 73.7202 60.9031C72.7649 61.9004 72.4696 63.7474 73.0955 65.1092C73.7085 64.4295 74.4551 64.3709 75.2979 64.5232C75.8148 64.6193 76.2531 64.3064 76.4911 63.8271C76.7396 63.3267 76.7794 62.8157 76.3739 62.3575C76.32 62.2954 76.2625 62.2403 76.1957 62.1629L76.865 61.577C76.8814 63.0524 77.4218 64.2091 78.6232 65.0307C78.0617 65.6166 77.8812 66.2448 78.2622 66.9632C78.5599 67.5234 79.1612 67.8492 79.7601 67.6664C80.4423 67.4624 81.1467 67.2398 81.7469 66.8718C82.5158 66.403 83.2472 66.0432 84.1544 66.4569C84.0817 64.8725 82.6599 63.1907 80.9803 62.6505C80.7975 62.5919 80.6111 62.5391 80.4294 62.4782C79.2034 62.0704 78.2235 62.8825 78.397 64.1623C78.4052 64.2267 78.4087 64.2912 78.4216 64.426C77.8919 63.9547 77.5423 63.3144 77.4323 62.6141C77.4116 62.4931 77.3979 62.3711 77.3913 62.2485C77.3444 61.2535 77.2999 60.2562 77.253 59.2202L78.0266 59.5284C77.6058 59.982 77.3936 60.4742 77.7582 61.0144C78.1227 61.5547 78.683 61.5946 79.2631 61.5395C79.4209 61.528 79.5754 61.4883 79.7191 61.4223C80.331 61.1223 80.9029 61.1633 81.4363 61.5946C81.8606 60.8691 81.7211 59.6855 81.0717 58.8991C80.805 58.576 80.4832 58.3026 80.1211 58.0916C79.0557 57.4811 78.2692 57.9311 78.1836 59.2261C77.6491 59.0186 77.1897 58.8604 76.9939 58.2042C76.5567 56.7381 75.6624 55.5591 74.3743 54.5712C75.0224 54.454 75.5897 54.3368 76.1629 54.2688C76.2696 54.2559 76.4126 54.4258 76.5145 54.5325C77.8332 55.8896 79.3546 56.8025 81.3202 56.772C81.467 56.782 81.6047 56.8469 81.7058 56.9537C82.2016 57.4857 82.681 58.0354 83.1229 58.5311C83.0245 58.8382 82.7338 59.2636 82.8405 59.5261C82.9823 59.8777 83.3925 60.1941 83.7617 60.3523C85.0218 60.889 86.3978 60.2808 86.9499 58.9671C86.2466 58.9354 85.861 58.4983 85.5562 57.9276C85.4344 57.7352 85.2725 57.5713 85.0815 57.4471C84.281 56.8611 83.6 57.1611 83.3714 58.3237L81.9567 56.8834L84.8202 55.463L84.7674 55.3458C84.7944 55.3563 84.8366 55.3587 84.8483 55.3798C85.2234 56.0525 85.6031 56.2998 86.1564 56.2201C86.8514 56.1193 87.1281 55.6071 87.2242 55.0141C87.3414 54.2981 87.5535 53.6559 88.1384 53.1883C87.1492 52.3339 85.4426 52.2507 84.4263 52.982C83.8754 53.3781 83.791 54.2266 84.2575 54.7528C84.3607 54.87 84.4849 54.9661 84.5986 55.0716C83.4804 56.308 81.0061 56.6841 79.3382 55.8486L80.1434 55.2837C80.1317 55.3341 80.12 55.3845 80.1071 55.4349C80.5161 55.5767 80.9182 55.8017 81.3354 55.8368C81.9016 55.8849 82.3904 55.4114 82.4208 54.8348C82.4619 54.086 82.7268 53.4777 83.4757 52.9023C82.8651 52.7359 82.388 52.5414 81.8957 52.4874C81.0412 52.396 80.2653 52.6714 79.6042 53.2234C78.7263 53.9582 78.7838 54.5641 79.7578 55.1091C79.1143 55.6622 78.7814 55.695 78.1778 55.1759C77.7839 54.8383 77.444 54.4399 77.0408 54.0285C77.4944 53.7848 77.8683 53.6031 78.2235 53.3898C79.5011 52.621 80.5501 51.612 81.4667 50.433C81.9614 49.7943 82.6049 49.2717 83.2718 48.7291C83.0796 49.6092 83.3773 50.1998 84.111 50.5948ZM51.6645 24.3153C51.7784 24.3453 51.8852 24.3979 51.9784 24.47C52.0717 24.542 52.1494 24.6321 52.2072 24.7349C52.4885 25.2997 52.703 25.8974 52.9784 26.5666L50.3259 26.0908C50.8639 25.3946 50.8557 25.1333 50.2087 24.1981C50.7549 24.2344 51.2191 24.2274 51.6645 24.3153ZM40.4285 34.899C41.5104 31.2989 44.6915 28.6983 48.5326 28.2776C52.7346 27.817 56.6483 30.1597 58.2764 34.108C59.3454 36.7015 59.0558 39.704 57.6798 42.151V41.2322H55.7094V38.75L54.2232 37.6601V35.8741L53.003 35.3397C52.9597 35.2577 52.9128 35.1756 52.8612 35.0959V33.9416L52.744 33.8701L51.5367 33.1271C51.489 32.8702 51.3953 32.624 51.2601 32.4005V31.3832L51.1933 31.327L49.5289 29.9933L47.7953 31.3821V32.302C47.6143 32.5584 47.494 32.8525 47.4437 33.1622L46.1836 33.8994V34.0353V35.0057C46.1015 35.1251 46.0282 35.2505 45.9645 35.3807L44.9166 35.8495L44.8474 35.8835V37.6683L43.3342 38.7582V41.2416H41.3592V42.3104C40.6922 41.2097 40.2646 39.9808 40.1042 38.7038C39.9439 37.4269 40.0544 36.1305 40.4285 34.899ZM52.0653 60.0453C52.0653 60.8293 51.9036 61.318 51.6903 61.6227C52.07 61.5442 52.6197 61.6145 53.3933 62.0633C55.2851 63.1626 54.1728 65.3811 55.8302 66.5167C54.0251 65.6366 52.6479 67.7015 50.7561 66.6034C49.9743 66.1487 49.6426 65.7034 49.5254 65.3319C49.4081 65.7034 49.0764 66.1522 48.2946 66.6034C46.4028 67.7015 45.0256 65.6366 43.2205 66.5167C44.8779 65.3834 43.7656 63.165 45.6574 62.0633C46.3137 61.6825 46.8072 61.5746 47.1741 61.5946C46.9713 61.2899 46.8224 60.8094 46.8166 60.0582C46.8166 58.0143 48.9721 57.7389 49.3718 56.0736H49.489C49.8946 57.7389 52.0536 58.0026 52.0653 60.0453Z" fill="#662D91"/>
    <path d="M48.3145 57.9499C47.9895 58.213 47.6978 58.5149 47.446 58.8487C47.198 59.203 47.0695 59.6271 47.0791 60.0594C47.0791 60.7461 47.2115 61.2477 47.4682 61.5512C47.5602 61.663 47.6787 61.75 47.8128 61.8044C47.77 61.894 47.7344 61.9869 47.7062 62.0821C47.5842 61.9737 47.4337 61.9025 47.2725 61.877C46.881 61.8091 46.3805 61.9497 45.7874 62.2942C45.4095 62.5041 45.1082 62.8287 44.9271 63.2212C44.7656 63.6071 44.6522 64.0113 44.5895 64.4248C44.4817 64.9733 44.3703 65.5335 44.0585 66.0245C44.6446 65.9975 45.1814 66.178 45.7124 66.3562C46.1029 66.5062 46.5103 66.6078 46.9255 66.6585C47.3564 66.6961 47.788 66.5951 48.1574 66.3702C48.7505 66.0257 49.1197 65.6612 49.2545 65.2874C49.3314 65.0874 49.3289 64.8656 49.2475 64.6674L49.1842 64.5584C49.2901 64.5797 49.3975 64.5926 49.5054 64.5971C49.5117 64.612 49.5172 64.6273 49.5218 64.6428C49.5218 64.6276 49.5323 64.6123 49.5382 64.5983H49.5827C49.671 64.598 49.7591 64.5917 49.8465 64.5795L49.7961 64.6662C49.7146 64.8644 49.7121 65.0862 49.789 65.2862C49.9238 65.66 50.293 66.0245 50.8861 66.3691C51.2556 66.5939 51.6872 66.6949 52.118 66.6574C52.5322 66.6087 52.9388 66.5095 53.3288 66.362C53.8598 66.1839 54.4013 66.0034 54.9827 66.0304C54.6709 65.5393 54.5595 64.9756 54.4517 64.4307C54.389 64.0172 54.2756 63.6129 54.1141 63.2271C53.9331 62.8346 53.6317 62.5099 53.2538 62.3001C52.6607 61.9555 52.1602 61.8149 51.7687 61.8829C51.6492 61.9018 51.5349 61.9457 51.4335 62.0118C51.3927 61.8948 51.3413 61.7819 51.28 61.6743C51.328 61.6359 51.372 61.5927 51.4112 61.5454C51.6668 61.2395 51.7945 60.7367 51.7933 60.0512C51.8003 59.6185 51.6693 59.195 51.4194 58.8417C51.1658 58.5093 50.8725 58.209 50.5462 57.9475C50.1254 57.5795 49.6953 57.2045 49.4257 56.6877C49.1584 57.201 48.7306 57.5795 48.3145 57.9499ZM48.9674 65.1995C48.8595 65.5135 48.5384 65.8323 48.0379 66.1229C47.2936 66.5554 46.6583 66.3316 45.9222 66.0714C45.4944 65.9202 45.0326 65.7573 44.5368 65.7468C44.7712 65.312 44.8603 64.8291 44.9411 64.3826C45.0806 63.615 45.2002 62.9529 45.9445 62.5204C46.445 62.2298 46.8822 62.1091 47.2068 62.1688C47.3769 62.1987 47.53 62.29 47.637 62.4255C47.629 62.4967 47.625 62.5683 47.6253 62.64C47.6251 63.0224 47.737 63.3965 47.9472 63.716C48.1574 64.0356 48.4566 64.2865 48.808 64.4377L48.9545 64.6908C49.0214 64.8531 49.0251 65.0345 48.965 65.1995H48.9674ZM49.7128 62.5532L50.7677 63.8154C50.7004 63.8849 50.6275 63.9488 50.5497 64.0064L49.5757 62.8462L48.5806 64.0322C48.5018 63.9762 48.4277 63.9139 48.359 63.8459L49.4069 62.5978V60.9641C49.4538 60.9641 49.5019 60.9582 49.5511 60.9582C49.6003 60.9582 49.6484 60.9582 49.6964 60.9641V62.5661L49.7128 62.5532ZM50.0363 62.4138V61.0285C50.2864 61.103 50.5157 61.2343 50.7065 61.4122C50.8973 61.5901 51.0442 61.8097 51.1359 62.0539C51.2275 62.2981 51.2613 62.5602 51.2347 62.8197C51.208 63.0791 51.1216 63.3289 50.9822 63.5494L50.0363 62.4138ZM49.0705 62.4712L48.1434 63.5763C47.9983 63.3564 47.9068 63.1055 47.876 62.8439C47.8453 62.5822 47.8762 62.317 47.9663 62.0694C48.0564 61.8218 48.2032 61.5987 48.3949 61.418C48.5866 61.2372 48.818 61.1039 49.0705 61.0285V62.4712ZM49.5534 64.3357C49.3227 64.3357 49.0945 64.2883 48.883 64.1963L49.578 63.3689L50.259 64.1811C50.037 64.2833 49.7955 64.336 49.5511 64.3357H49.5534ZM51.546 62.6411C51.546 62.5328 51.537 62.4246 51.5191 62.3177C51.6125 62.2423 51.7233 62.1915 51.8414 62.17C52.1673 62.1091 52.6033 62.2298 53.1038 62.5216C53.8481 62.954 53.9676 63.6162 54.1071 64.3838C54.188 64.8303 54.2747 65.3131 54.5115 65.7479C54.0157 65.7585 53.5539 65.9214 53.126 66.0726C52.39 66.3327 51.7547 66.5566 51.0162 66.1241C50.5157 65.8335 50.1957 65.5147 50.0867 65.2006C50.0277 65.0358 50.0323 64.8548 50.0996 64.6932L50.2168 64.4998C50.6038 64.3669 50.9394 64.1161 51.1765 63.7828C51.4136 63.4494 51.5404 63.0502 51.539 62.6411H51.546ZM50.4138 58.2686C51.0092 58.7726 51.5226 59.2062 51.5249 60.0687C51.5249 60.6465 51.4077 61.0848 51.1967 61.3368C51.1722 61.366 51.1451 61.3931 51.1159 61.4176C50.9243 61.1775 50.6789 60.9857 50.3995 60.858C50.1201 60.7302 49.8146 60.67 49.5076 60.6822C49.2006 60.6944 48.9008 60.7787 48.6325 60.9283C48.3641 61.0778 48.1347 61.2884 47.9629 61.543C47.8574 61.5002 47.7637 61.4327 47.6898 61.3461C47.4729 61.0965 47.3569 60.6582 47.3545 60.0805C47.3545 59.2191 47.8644 58.7819 48.4563 58.2745C48.8009 57.9792 49.1737 57.6604 49.4304 57.2362C49.6859 57.6592 50.0598 57.9757 50.4067 58.2686H50.4138Z" fill="#662D91"/>
</svg>
